<svg width="24" height="18" viewBox="0 0 24 18" fill="none" xmlns="http://www.w3.org/2000/svg">
<path d="M-2.32853e-07 14.5463L-1.23749e-08 9.50233C-5.54513e-09 9.34609 0.12697 9.2192 0.283323 9.2192L21.5193 9.32716C21.5939 9.32716 21.6652 9.35652 21.7187 9.40895L23.9161 11.5765C23.9696 11.63 24 11.7023 24 11.7778L24 16.8176C24 16.9738 23.873 17.1007 23.7167 17.1007L2.38411 16.9928C2.30751 16.9928 2.23406 16.9613 2.18159 16.9068L0.0797498 14.7424C0.0283315 14.6899 -2.36016e-07 14.6186 -2.32807e-07 14.5452" fill="#293242"/>
<path d="M24.0002 2.44647L24.0002 7.49042C24.0002 7.64667 23.8733 7.77355 23.7169 7.77355L10.9338 7.77355C10.8593 7.77355 10.7879 7.74419 10.7344 7.69176L8.53707 5.52422C8.48356 5.47074 8.45313 5.39839 8.45313 5.32289L8.45313 0.283134C8.45313 0.126887 8.5801 4.82387e-07 8.73645 4.89222e-07L21.6161 1.05221e-06C21.6927 1.05556e-06 21.7662 0.0314613 21.8186 0.0859905L23.9205 2.25038C23.9719 2.30281 24.0002 2.37412 24.0002 2.44752" fill="#293242"/>
</svg>
