<svg width="28" height="30" viewBox="0 0 28 30" fill="none" xmlns="http://www.w3.org/2000/svg">
<path d="M26.2838 13.413C25.5671 13.413 24.9857 12.8585 24.9857 12.1751C24.9857 8.7026 23.5681 5.43932 20.9939 2.98302C20.4864 2.49906 20.4864 1.71679 20.9939 1.2326C21.5014 0.748639 22.3219 0.748639 22.8294 1.2326C25.8944 4.15541 27.5818 8.0416 27.5818 12.1751C27.5818 12.8585 27.0004 13.413 26.2838 13.413Z" fill="#D0F5E8"/>
<path d="M1.70231 13.413C0.98592 13.413 0.404297 12.8585 0.404297 12.1751C0.404297 8.0416 2.09188 4.15541 5.15663 1.2326C5.6641 0.748639 6.4846 0.748639 6.99206 1.2326C7.49976 1.71679 7.49976 2.49906 6.99206 2.98302C4.4179 5.43796 3.00056 8.7026 3.00056 12.1751C3.00056 12.8585 2.41894 13.413 1.70231 13.413Z" fill="#D0F5E8"/>
<path d="M25.4308 20.7982C23.5868 19.2396 22.5295 16.9615 22.5295 14.5482V11.1483C22.5295 6.85698 19.3417 3.30457 15.2126 2.70949V1.39227C15.2126 0.717916 14.6662 0.172852 13.9932 0.172852C13.3199 0.172852 12.7735 0.717916 12.7735 1.39227V2.70949C8.64322 3.30457 5.45657 6.85698 5.45657 11.1483V14.5482C5.45657 16.9615 4.39926 19.2396 2.54457 20.8078C2.07007 21.214 1.7981 21.8042 1.7981 22.4285C1.7981 23.6055 2.75536 24.5627 3.93235 24.5627H24.054C25.2307 24.5627 26.188 23.6055 26.188 22.4285C26.188 21.8042 25.916 21.214 25.4308 20.7982Z" fill="#D0F5E8"/>
<path d="M13.9927 29.4406C16.2253 29.4406 18.0931 27.9411 18.5222 25.9563H9.46313C9.89205 27.9411 11.7599 29.4406 13.9927 29.4406Z" fill="#D0F5E8"/>
</svg>
