<svg width="32" height="27" viewBox="0 0 32 27" fill="none" xmlns="http://www.w3.org/2000/svg">
<path fill-rule="evenodd" clip-rule="evenodd" d="M16.3349 -0.00284785C13.7884 -0.0876531 11.2155 0.607112 8.99428 2.08981C6.4995 3.75685 4.75601 6.21859 3.95295 8.97058C3.73118 8.9435 3.46562 8.95545 3.15029 9.04463C1.97297 9.37868 1.08749 10.3434 0.689345 11.193C0.172949 12.3003 -0.0448377 13.7647 0.184893 15.2764C0.413031 16.7834 1.04967 18.0256 1.84596 18.7968C2.64464 19.5684 3.54644 19.8193 4.44227 19.631C5.77606 19.3463 6.43739 19.1333 6.25066 17.8907L5.34646 11.8671C5.52882 8.60707 7.21656 5.53816 10.0394 3.65094C13.8178 1.12709 18.7716 1.28874 22.3756 4.05546C24.8827 5.97771 26.3383 8.8579 26.5064 11.8814L25.8741 16.095C24.4639 19.9542 20.9677 22.6274 16.9222 23.0068H14.2283C13.5332 23.0068 12.9734 23.5666 12.9734 24.261V24.9227C12.9734 25.6175 13.5332 26.1773 14.2283 26.1773H17.6249C18.3197 26.1773 18.8771 25.6175 18.8771 24.9227V24.5767C21.9277 23.8322 24.5905 21.9573 26.3244 19.3427L27.4125 19.6314C28.298 19.8611 29.2106 19.5684 30.0089 18.7972C30.8051 18.0256 31.4414 16.7838 31.6699 15.2768C31.9004 13.7651 31.6763 12.3031 31.1659 11.1934C30.6535 10.0838 29.8902 9.37908 29.0091 9.12625C28.64 9.01995 28.2395 8.98093 27.8959 8.97058C27.1697 6.48216 25.6746 4.2191 23.5199 2.56679C21.4013 0.941158 18.8815 0.0807629 16.3349 -0.00284785Z" fill="#263244"/>
<path fill-rule="evenodd" clip-rule="evenodd" d="M20.3107 10.834C21.2085 10.834 21.9363 11.5619 21.9383 12.4621C21.9363 13.3599 21.2085 14.0897 20.3107 14.0897C19.4104 14.0897 18.6806 13.3599 18.6806 12.4621C18.6806 11.5623 19.4108 10.834 20.3107 10.834ZM15.9271 10.834C16.8269 10.834 17.5547 11.5619 17.5547 12.4621C17.5547 13.3599 16.8269 14.0897 15.9271 14.0897C15.0265 14.0897 14.2986 13.3599 14.2986 12.4621C14.2986 11.5623 15.0265 10.834 15.9271 10.834ZM11.5451 10.834C12.4429 10.834 13.1727 11.5619 13.1727 12.4621C13.1727 13.3599 12.4429 14.0897 11.5451 14.0897C10.6453 14.0897 9.91704 13.3599 9.91704 12.4621C9.91704 11.5623 10.6453 10.834 11.5451 10.834ZM15.9271 3.8418C11.1533 3.8418 7.3064 7.56208 7.3064 12.4621C7.3064 14.8155 8.19625 16.8954 9.64591 18.4215L9.1315 20.7276C8.96189 21.4865 9.48824 21.9969 10.1703 21.6171L12.4222 20.3609C13.4924 20.8255 14.6761 21.0823 15.9271 21.0823C20.7024 21.0823 24.5469 17.3644 24.5469 12.4621C24.5469 7.56208 20.7024 3.8418 15.9271 3.8418Z" fill="#263244"/>
</svg>
