<svg width="33" height="27" viewBox="0 0 33 27" fill="none" xmlns="http://www.w3.org/2000/svg">
<path d="M0.272461 6.21998V5.84588C0.272461 2.75222 2.80409 0.234375 5.91468 0.234375H26.9789C30.0895 0.234375 32.6212 2.75222 32.6212 5.84588V6.21998H0.272461ZM0.272461 8.46459V20.8099C0.272461 23.9036 2.80409 26.4214 5.91468 26.4214H10.8046V18.2817L8.12597 15.6177C7.68513 15.1792 7.68513 14.4691 8.12597 14.0308C8.56682 13.5925 9.2809 13.5923 9.72159 14.0308L12.7308 17.0236C12.9423 17.234 13.0613 17.519 13.0613 17.8171V26.4214H15.3182V14.8243C15.3182 14.2046 15.8236 13.702 16.4467 13.702C17.0697 13.702 17.5751 14.2046 17.5751 14.8243V26.4214H19.832V17.8171C19.832 17.519 19.951 17.2341 20.1625 17.0236L23.1717 14.0308C23.6126 13.5923 24.3267 13.5923 24.7673 14.0308C25.208 14.4692 25.2082 15.1794 24.7673 15.6177L22.0887 18.2817V26.4214H26.9786C30.0892 26.4214 32.6209 23.9036 32.6209 20.8099V8.46459H0.272461Z" fill="#D0F5E8"/>
</svg>
