<svg width="33" height="30" viewBox="0 0 33 30" fill="none" xmlns="http://www.w3.org/2000/svg">
<path d="M16.268 10.4205H13.7155L11.5295 4.58985V10.4205H9.63403V0.943359H12.1865L14.3726 6.77402V0.943359H16.268V10.4205Z" fill="#D0F5E8"/>
<path d="M20.059 10.4205C18.4912 10.4205 17.2158 9.14514 17.2158 7.57737V3.78651C17.2158 2.21873 18.4912 0.943359 20.059 0.943359C21.6267 0.943359 22.9021 2.21873 22.9021 3.78651V7.57737C22.9021 9.14514 21.6267 10.4205 20.059 10.4205ZM20.059 2.83879C19.5361 2.83879 19.1113 3.26362 19.1113 3.78651V7.57737C19.1113 8.10026 19.5361 8.52509 20.059 8.52509C20.5819 8.52509 21.0067 8.10026 21.0067 7.57737V3.78651C21.0067 3.26362 20.5819 2.83879 20.059 2.83879Z" fill="#D0F5E8"/>
<path d="M29.5993 12.3159H2.9369C1.36912 12.3159 0.09375 13.5913 0.09375 15.1591V26.5317C0.09375 28.0994 1.36912 29.3748 2.9369 29.3748H29.5993C31.1671 29.3748 32.4424 28.0994 32.4424 26.5317V15.1591C32.4424 13.5913 31.1671 12.3159 29.5993 12.3159ZM10.5818 18.0022H6.79094V19.8976H8.68637V21.7931H6.79094V25.5839H4.89551C4.89551 24.8564 4.89551 15.6324 4.89551 16.1068H10.5818V18.0022ZM16.2681 18.0022H13.425V19.8976H15.3204V21.7931H13.425V23.6885H16.2681V25.5839H11.5295C11.5295 24.8564 11.5295 15.6324 11.5295 16.1068H16.2681V18.0022ZM21.9544 18.0022H19.1112V19.8976H21.0067V21.7931H19.1112V23.6885H21.9544V25.5839H17.2158C17.2158 24.8564 17.2158 15.6324 17.2158 16.1068H21.9544V18.0022ZM25.7453 25.5839C24.9845 25.5839 24.27 25.2877 23.7341 24.7501L23.065 24.0791L24.407 22.7408L25.0761 23.4118C25.6203 23.9606 26.693 23.5173 26.693 22.7408C26.693 22.2179 26.2681 21.7931 25.7453 21.7931C24.1775 21.7931 22.9021 20.5177 22.9021 18.9499C22.9021 17.3822 24.1775 16.1068 25.7453 16.1068C26.506 16.1068 27.2205 16.403 27.7564 16.9406L28.4255 17.6116L27.0836 18.9499L26.4144 18.2789C25.8721 17.7338 24.7994 18.1744 24.7975 18.9499C24.7975 19.4728 25.2224 19.8976 25.7453 19.8976C27.313 19.8976 28.5884 21.173 28.5884 22.7408C28.5884 24.3086 27.313 25.5839 25.7453 25.5839Z" fill="#D0F5E8"/>
</svg>
