<svg width="22" height="32" viewBox="0 0 22 32" fill="none" xmlns="http://www.w3.org/2000/svg">
<path d="M0.486328 6.04614H21.5387V23.4801H0.486328V6.04614Z" fill="#D0F5E8"/>
<path d="M21.5387 4.07231V3.74337C21.5387 1.74735 19.9163 0.125 17.9203 0.125H4.1047C2.10867 0.125 0.486328 1.74735 0.486328 3.74337V4.07231H21.5387Z" fill="#D0F5E8"/>
<path d="M0.486328 25.4543V28.0859C0.486328 30.0819 2.10867 31.7043 4.1047 31.7043H17.9203C19.9163 31.7043 21.5387 30.0819 21.5387 28.0859V25.4543H0.486328ZM12.6572 29.0727H9.36778C8.82305 29.0727 8.38095 28.6306 8.38095 28.0859C8.38095 27.5412 8.82305 27.0991 9.36778 27.0991H12.6572C13.2019 27.0991 13.644 27.5412 13.644 28.0859C13.644 28.6306 13.2019 29.0727 12.6572 29.0727Z" fill="#D0F5E8"/>
</svg>
