<svg width="22" height="32" viewBox="0 0 22 32" fill="none" xmlns="http://www.w3.org/2000/svg">
<path d="M0.486328 6.0459H21.5387V23.4799H0.486328V6.0459Z" fill="#263244"/>
<path d="M21.5387 4.07231V3.74337C21.5387 1.74735 19.9163 0.125 17.9203 0.125H4.1047C2.10867 0.125 0.486328 1.74735 0.486328 3.74337V4.07231H21.5387Z" fill="#263244"/>
<path d="M0.486328 25.4541V28.0856C0.486328 30.0817 2.10867 31.704 4.1047 31.704H17.9203C19.9163 31.704 21.5387 30.0817 21.5387 28.0856V25.4541H0.486328ZM12.6572 29.0725H9.36778C8.82305 29.0725 8.38095 28.6304 8.38095 28.0856C8.38095 27.5409 8.82305 27.0988 9.36778 27.0988H12.6572C13.2019 27.0988 13.644 27.5409 13.644 28.0856C13.644 28.6304 13.2019 29.0725 12.6572 29.0725Z" fill="#263244"/>
</svg>
