<svg width="39" height="30" viewBox="0 0 39 30" fill="none" xmlns="http://www.w3.org/2000/svg">
<path fill-rule="evenodd" clip-rule="evenodd" d="M38.2525 15.0505L20.8628 29.7084C20.5415 29.9773 20.0596 29.937 19.7918 29.6142L10.4879 18.4796C10.2201 18.1569 10.2603 17.6728 10.5816 17.4038L27.9713 2.74592C28.2926 2.47697 28.7745 2.51731 29.0422 2.84006L38.3462 13.9747C38.6139 14.2974 38.5737 14.7815 38.2525 15.0505ZM9.3232 18.4393L18.3059 29.1973C18.1318 29.1973 17.9712 29.1436 17.8239 29.0225L6.73952 19.6764C6.41823 19.4075 6.37807 18.9234 6.64581 18.6006L21.2376 1.13221C21.5054 0.80947 21.9873 0.769127 22.3086 1.03808L25.4813 3.71415L9.41691 17.2559C9.06885 17.5383 9.0153 18.0762 9.3232 18.4393ZM5.57485 19.8244L16.5656 29.0898C16.3514 29.1973 16.0836 29.1973 15.856 29.0629L3.32584 21.8012C2.96439 21.586 2.84391 21.1288 3.04471 20.7523L14.3969 0.997736C14.6111 0.634651 15.0662 0.513623 15.4411 0.715337L18.8012 2.66524L5.46775 18.6275C5.17324 18.9906 5.2134 19.5285 5.57485 19.8244ZM2.21472 22.1508L14.6914 29.3856C14.5174 29.4797 14.3032 29.4932 14.1024 29.4125L0.514573 24.4369C0.12635 24.289 -0.0878415 23.8587 0.0594153 23.4552L7.82386 2.01975C7.97112 1.62977 8.3995 1.41461 8.80111 1.56254L12.3353 2.8535L1.90682 20.9943C1.66585 21.3977 1.79972 21.9088 2.21472 22.1508Z" fill="#D0F5E8"/>
</svg>
